<svg width="92" height="150" viewBox="0 0 92 150" fill="none" xmlns="http://www.w3.org/2000/svg">
  <path fill-rule="evenodd" clip-rule="evenodd"
        d="M31.8112 43.8717C32.0232 41.4429 29.463 39.6116 29.0815 37.2041C28.8712 35.8793 29.3483 34.5557 29.7494 33.2753C30.7808 29.9804 31.3484 26.4878 30.9099 23.0632C30.4708 19.6381 28.9559 16.2786 26.3409 14.0232C23.7266 11.7684 19.9551 10.7634 16.678 11.852C15.9802 10.3163 13.8187 9.97804 12.279 10.6672C10.7393 11.3564 9.656 12.7492 8.54675 14.0192C6.08045 16.8445 3.18832 19.2964 0 21.2705V61.6123C8.39059 61.901 17.2266 64.4831 24.4676 60.3573C27.241 58.7772 29.9637 56.3674 30.2184 53.1854C30.359 51.425 29.7137 49.6157 30.1816 47.9129C30.5682 46.5045 31.6844 45.3267 31.8112 43.8717Z"
        fill="#2C2F3D"/>
  <path fill-rule="evenodd" clip-rule="evenodd"
        d="M82.1333 18.5581L66.4499 64.3707C66.4499 64.3707 48.4742 59.1868 30.2605 53.8762C26.8532 60.6557 5.99517 61.3448 0 59.2237V149.579L31.8238 76.8554C31.8238 76.8554 68.0317 85.3722 73.0536 79.8121C78.8309 73.4147 89.4879 18.5581 89.4879 18.5581H82.1333Z"
        fill="#6871EF"/>
  <path fill-rule="evenodd" clip-rule="evenodd"
        d="M82.1333 18.5581L66.4499 64.3707C66.4499 64.3707 48.4742 59.1868 30.2605 53.8762C26.8532 60.6557 5.99517 61.3448 0 59.2237V149.579L31.8238 76.8554C31.8238 76.8554 68.0317 85.3722 73.0536 79.8121C78.8309 73.4147 89.4879 18.5581 89.4879 18.5581H82.1333Z"
        fill="url(#paint0_linear)" fill-opacity="0.1"/>
  <path fill-rule="evenodd" clip-rule="evenodd"
        d="M0 44.9575V59.7213C2.68411 62.055 5.67939 63.8466 9.4935 64.1641C18.0074 65.8674 26.5173 61.3232 30.2605 53.8765C18.7905 50.532 7.22889 47.1386 0 44.9575Z"
        fill="#2C2F3D"/>
  <path fill-rule="evenodd" clip-rule="evenodd"
        d="M44.7186 0L45.7708 0.887981L38.0688 10.011L37.0166 9.12241L44.7186 0Z" fill="#B6BAC7"/>
  <path fill-rule="evenodd" clip-rule="evenodd"
        d="M54.0892 9.36279L54.6954 10.6052L41.5584 17.0146L40.9521 15.7723L54.0892 9.36279Z" fill="#B6BAC7"/>
  <path fill-rule="evenodd" clip-rule="evenodd"
        d="M53.2961 24.3535L53.3457 25.7319L43.7122 26.0788L43.6626 24.7004L53.2961 24.3535Z" fill="#B6BAC7"/>
  <path fill-rule="evenodd" clip-rule="evenodd"
        d="M82.1335 18.5583L80.3794 7.51819H82.1335L84.0938 13.038L87.4988 2.56543H91.8327L89.488 18.5583H82.1335Z"
        fill="#F6F8F9"/>
  <path fill-rule="evenodd" clip-rule="evenodd" d="M84.0938 13.3267H88.1176V12.7505H84.0938V13.3267Z" fill="#B6BAC7"/>
  <path fill-rule="evenodd" clip-rule="evenodd"
        d="M15.813 49.6499L17.8511 42.4965C17.8511 42.4965 22.3395 42.3415 22.8033 40.7943C23.2678 39.2465 26.2083 26.4005 26.2083 26.4005C26.2083 26.4005 22.3395 25.1621 20.4822 21.1383C18.6245 17.1138 16.9223 15.8755 16.9223 15.8755C16.9223 15.8755 15.1999 26.5549 10.8862 30.1149C10.8862 30.1149 7.17175 25.3166 5.46897 27.6382C3.76677 29.9599 8.56451 33.2104 8.56451 33.2104C8.56451 33.2104 12.166 47.5097 0.150879 45.0031V51.6281C0.150879 59.0057 16.3743 66.6408 25.2316 52.4078L15.813 49.6499Z"
        fill="white"/>
  <path fill-rule="evenodd" clip-rule="evenodd"
        d="M9.64841 34.2163C9.64841 33.3185 8.92063 32.5913 8.02343 32.5913C7.12565 32.5913 6.39844 33.3185 6.39844 34.2163C6.39844 35.1141 7.12565 35.8413 8.02343 35.8413C8.92063 35.8413 9.64841 35.1141 9.64841 34.2163Z"
        fill="#EEBA08"/>
  <path fill-rule="evenodd" clip-rule="evenodd" d="M15.813 49.6499L14.9619 53.0209L17.7866 50.2279L15.813 49.6499Z"
        fill="#B6BAC7"/>
  <path fill-rule="evenodd" clip-rule="evenodd"
        d="M9.43322 31.6491C9.36004 31.6491 9.28628 31.6214 9.22981 31.5655L6.56241 28.92C6.44947 28.8082 6.44831 28.6255 6.56068 28.5126C6.67362 28.3997 6.85514 28.3985 6.96866 28.5109L9.63663 31.1564C9.749 31.2687 9.75015 31.4508 9.63721 31.5638C9.58132 31.6208 9.50756 31.6491 9.43322 31.6491Z"
        fill="#3D3F47"/>
  <path fill-rule="evenodd" clip-rule="evenodd"
        d="M17.9705 27.6382H17.8351C17.3332 27.6382 16.9224 28.049 16.9224 28.5504V28.6864C16.9224 29.1883 17.3332 29.5985 17.8351 29.5985H17.9705C18.4724 29.5985 18.8827 29.1883 18.8827 28.6864V28.5504C18.8827 28.049 18.4724 27.6382 17.9705 27.6382Z"
        fill="#2C2F3D"/>
  <path fill-rule="evenodd" clip-rule="evenodd"
        d="M24.3197 29.0586H24.1842C23.6823 29.0586 23.2715 29.4695 23.2715 29.9708V30.1068C23.2715 30.6087 23.6823 31.019 24.1842 31.019H24.3197C24.8216 31.019 25.2318 30.6087 25.2318 30.1068V29.9708C25.2318 29.4695 24.8216 29.0586 24.3197 29.0586Z"
        fill="#2C2F3D"/>
  <path fill-rule="evenodd" clip-rule="evenodd"
        d="M16.7214 25.8684C16.6448 25.8684 16.5681 25.8379 16.5117 25.7779C16.4022 25.6615 16.408 25.4794 16.5238 25.3705C17.4204 24.5275 18.857 24.342 19.938 24.9291C20.078 25.0046 20.1299 25.1798 20.0538 25.3198C19.9772 25.4599 19.8014 25.5106 19.6631 25.4357C18.7936 24.9637 17.6394 25.113 16.9191 25.79C16.8632 25.8425 16.7923 25.8684 16.7214 25.8684Z"
        fill="#2C2F3D"/>
  <path fill-rule="evenodd" clip-rule="evenodd"
        d="M26.2974 27.8309C26.1948 27.8309 26.0957 27.7762 26.0439 27.6794C25.6941 27.0299 24.9121 26.6335 24.1792 26.7384C24.023 26.7591 23.8755 26.6519 23.853 26.494C23.8305 26.3367 23.94 26.1904 24.0973 26.1679C25.0752 26.0284 26.0831 26.5373 26.551 27.4062C26.6265 27.5462 26.574 27.7208 26.434 27.7963C26.3902 27.82 26.3435 27.8309 26.2974 27.8309Z"
        fill="#2C2F3D"/>
  <path fill-rule="evenodd" clip-rule="evenodd"
        d="M21.9218 38.2217L17.6951 36.5195C17.6951 36.5195 17.5447 37.1165 17.558 37.8351C18.7456 38.3635 20.0369 38.7876 21.3225 39.218C21.7138 38.7156 21.9218 38.2217 21.9218 38.2217Z"
        fill="#FFFFFE"/>
  <path fill-rule="evenodd" clip-rule="evenodd"
        d="M17.5581 37.835C17.5737 38.7022 17.8284 39.7469 18.8835 40.1416C19.9783 40.5519 20.8087 39.8777 21.3221 39.2179C20.0365 38.7881 18.7457 38.3634 17.5581 37.835Z"
        fill="#2C2F3D"/>
  <path fill-rule="evenodd" clip-rule="evenodd"
        d="M20.4838 36.0828L20.1709 35.5994L21.7129 34.6008V30.5273H22.2891V34.9142L20.4838 36.0828Z" fill="#3D3F47"/>
  <path fill-rule="evenodd" clip-rule="evenodd" d="M31.8237 76.7785L34.6726 70.1904L35.1256 77.5899L31.8237 76.7785Z"
        fill="#343AAC"/>
  <path fill-rule="evenodd" clip-rule="evenodd" d="M66.4492 64.3709L73.0529 66.0218L67.6489 60.8662L66.4492 64.3709Z"
        fill="#343AAC"/>
  <defs>
    <linearGradient id="paint0_linear" x1="0" y1="18.5581" x2="0" y2="149.579" gradientUnits="userSpaceOnUse">
      <stop stop-color="white" stop-opacity="0.5"/>
      <stop offset="1" stop-opacity="0.5"/>
    </linearGradient>
  </defs>
</svg>
