<svg width="37" height="19" viewBox="0 0 37 19" fill="none" xmlns="http://www.w3.org/2000/svg">
  <path d="M12.048 18L8.592 12.696L5.136 18H0.84L6.456 9.36L1.152 1.2H5.448L8.592 6.024L11.712 1.2H16.032L10.752 9.36L16.344 18H12.048ZM24.3291 18.24C23.0651 18.24 21.9531 17.992 20.9931 17.496C20.0491 16.984 19.3131 16.304 18.7851 15.456C18.2571 14.608 17.8651 13.696 17.6091 12.72C17.3691 11.744 17.2491 10.704 17.2491 9.6C17.2491 8.592 17.3771 7.608 17.6331 6.648C17.8891 5.672 18.2811 4.752 18.8091 3.888C19.3371 3.008 20.0731 2.304 21.0171 1.776C21.9771 1.232 23.0811 0.959999 24.3291 0.959999C25.8491 0.959999 27.1451 1.352 28.2171 2.136C29.2891 2.92 30.0491 3.872 30.4971 4.992L27.2331 6.456C26.7691 5.768 26.3211 5.264 25.8891 4.944C25.4731 4.624 24.9531 4.464 24.3291 4.464C23.7371 4.464 23.2171 4.624 22.7691 4.944C22.3211 5.248 21.9771 5.664 21.7371 6.192C21.4971 6.704 21.3211 7.248 21.2091 7.824C21.0971 8.384 21.0411 8.976 21.0411 9.6C21.0411 10.448 21.1451 11.248 21.3531 12C21.5771 12.752 21.9451 13.4 22.4571 13.944C22.9851 14.472 23.6091 14.736 24.3291 14.736C25.3691 14.736 26.3211 14.016 27.1851 12.576L30.5211 13.824C29.1611 16.768 27.0971 18.24 24.3291 18.24ZM32.9634 18V1.2H36.6114V18H32.9634Z" fill="#3D3F47"/>
</svg>
