<svg xmlns="http://www.w3.org/2000/svg" width="85.808" height="152"><path data-name="Path 1" d="M85.808 69.639c-9.269 2.8-31.643-9.213-31.882-14.831l-36.677.93 10.047-41.964H20.74S4.245 45.69.25 62.83s41.231 13.593 41.231 13.593L30.436 152h55.372V69.639z" fill="#f4ca39" fill-rule="evenodd"/><path data-name="Path 2" d="M83.695 28.061s3.546 3.388-5.467 15.51l-5.93-.888 4.256-18.315z" fill="#2c2f3d" fill-rule="evenodd"/><path data-name="Path 3" d="M85.616 64.947c-.584.371-1.174.735-1.773 1.088-9.586 5.858-25.4 1.155-26.278-11.074l-3.831.1c.253 5.929 2.134 11.241 7.059 14.524 8.161 5.565 17.019 4.6 24.823.49z" fill="#3d3f47" fill-rule="evenodd"/><path data-name="Path 4" d="M85.616 54.249l-28.051.711c.875 12.23 16.692 16.932 26.278 11.074a56.76 56.76 0 001.773-1.088z" fill="#dfe2ec" fill-rule="evenodd"/><path data-name="Path 5" d="M78.819 56.514V41.428s4.729-2.483 3.251-4.97-5.462 1.614-5.462 1.614h-1.039s1.625-11.087 2.808-11.584l-8.127-2.122s-1.773.55-2.955 5.594-4.877 14.206-2.217 15.832a17.839 17.839 0 004.43 2.068l-1.921 9.369z" fill="#dfe2ec" fill-rule="evenodd"/><path data-name="Path 6" d="M78.376 26.489s-8.866.833-9.9-3.9 2.659-6.945 6.058-6.5a6.052 6.052 0 014.58 3.836s8.718 2.222 4.581 8.132z" fill="#2c2f3d" fill-rule="evenodd"/><path data-name="Path 7" d="M66.896 37.689l1.744.7s1.887-5.079.63-5.171-2.374 4.471-2.374 4.471z" fill="#b6bac7" fill-rule="evenodd"/><path data-name="Path 8" d="M72.435 33.2a.873.873 0 11.487 1.134.873.873 0 01-.487-1.134z" fill="#2c2f3d" fill-rule="evenodd"/><path data-name="Path 9" d="M66.085 30.982a.873.873 0 11.487 1.134.873.873 0 01-.487-1.134z" fill="#2c2f3d" fill-rule="evenodd"/><path data-name="Path 10" d="M78.341 39.545a.27.27 0 01-.213-.438 5.567 5.567 0 012.745-1.868.271.271 0 01.155.518 5.015 5.015 0 00-2.475 1.685.271.271 0 01-.212.103z" fill="#b6bac7" fill-rule="evenodd"/><path data-name="Path 11" d="M75.982 31.507a.405.405 0 01-.4-.321 1.288 1.288 0 00-.835-.927 1.31 1.31 0 00-1.258.166.406.406 0 01-.492-.645 2.116 2.116 0 012.032-.282 2.093 2.093 0 011.347 1.519.405.405 0 01-.312.481.38.38 0 01-.082.009z" fill="#2c2f3d" fill-rule="evenodd"/><path data-name="Path 12" d="M69.383 28.966a.407.407 0 01-.395-.312.978.978 0 00-.642-.639.911.911 0 00-.86.134.406.406 0 01-.544-.6 1.706 1.706 0 011.658-.3 1.777 1.777 0 011.178 1.222.405.405 0 01-.3.489.412.412 0 01-.095.006z" fill="#2c2f3d" fill-rule="evenodd"/><path data-name="Path 13" d="M65.823 41.263c-.146 1-.1 2.54 1.439 3a3.039 3.039 0 003.817-1.653 8.913 8.913 0 00-5.256-1.347z" fill="#2c2f3d" fill-rule="evenodd"/><path data-name="Path 14" d="M71.596 41.249l-5.573-.87a5.632 5.632 0 00-.2.885 32.939 32.939 0 005.256 1.343 5.664 5.664 0 00.517-1.358z" fill="#fffffe" fill-rule="evenodd"/><path data-name="Path 15" d="M68.108 54.693l-.9 3.584-1.191-3.531z" fill="#b6bac7" fill-rule="evenodd"/><path data-name="Path 16" d="M69.508 47.86l2.788 1.035h-3z" fill="#b6bac7" fill-rule="evenodd"/><path data-name="Path 17" d="M41.289 76.673L43.42 66.33l-5.973 10.343z" fill="#eeba08" fill-rule="evenodd"/><path data-name="Path 18" d="M27.108 14.023s6.206.3 6.206 0v-1.182l-4.728-1.773 3.1-10.2L26.513 0l-5.964 14.023z" fill="#dfe2ec" fill-rule="evenodd"/><path data-name="Path 19" d="M17.056 55.986l-2.216 7.388 7.389-7.519z" fill="#eeba08" fill-rule="evenodd"/><path data-name="Path 20" d="M59.508 18.309l-1 .848-7.364-8.707 1-.848z" fill="#b6bac7" fill-rule="evenodd"/><path data-name="Path 21" d="M55.745 24.661l-.578 1.183-12.54-6.121.581-1.183z" fill="#b6bac7" fill-rule="evenodd"/><path data-name="Path 22" d="M53.158 33.182l-.05 1.318-9.2-.333.048-1.318z" fill="#b6bac7" fill-rule="evenodd"/><path data-name="Path 23" d="M24.234 9.345l4.433 1.466-.17.514-4.433-1.466z" fill="#b6bac7" fill-rule="evenodd"/></svg>
