<svg xmlns="http://www.w3.org/2000/svg" width="149.757" height="216.106" viewBox="0 0 149.757 216.106">
  <g id="Group_1" data-name="Group 1" transform="translate(30 -0.868)">
    <path id="Path_24" data-name="Path 24" d="M-19.165,216.974l129.409-6.7L99.408.868-30,7.564Z" fill="#b6bac7"
          fill-rule="evenodd"/>
    <path id="Path_25" data-name="Path 25" d="M-18.162,15.2,92.828,9.46l10.409,201.18-110.4,5.712-11-201.15Z"
          fill="#3a3b39" fill-rule="evenodd"/>
    <path id="Path_26" data-name="Path 26"
          d="M106.635,53.242q-2.906-1.893-5.967-3.528a2.774,2.774,0,0,1-1.361-3.2l1.366-4.843s4.506-1.462,3.862-3.1-4.318.782-4.318.782l4.3-9.763-8-3.346s-7.748,12.248-6.195,14.18,2.144,2.57,2.144,2.57l-1.158,3.525-8.026.416.51,9.862c4.205,6.228,20.747,3.732,22.839-3.548Z"
          fill="#fff" fill-rule="evenodd"/>
    <path id="Path_27" data-name="Path 27"
          d="M100.217,39.346l-1.038-.617s2.381-9.064,4.533-8.505c0,0-9.5-1.184-9.19-5.9s4.7-4.266,5.746-3.426,1.452,4.283,1.452,4.283,6.785,1.549,4.992,5.777a51.725,51.725,0,0,1-3.655,7.118l-2.84,1.265Z"
          fill="#2c2f3d" fill-rule="evenodd"/>
    <path id="Path_28" data-name="Path 28"
          d="M119.743,68.735c-.252-4.965-5.2-9.818-10.229-13.5-6.062,6.967-17.593,10.034-25.53,5.176l3.778,73.017c24.325-30.987,32.382-56.755,31.981-64.689Z"
          fill="#f4ca39" fill-rule="evenodd"/>
    <path id="Path_29" data-name="Path 29"
          d="M109.514,55.23q-1.413-1.032-2.879-1.988c-8.529,7.951-18.688,6-22.839,3.548l.188,3.617c7.938,4.858,19.468,1.791,25.53-5.176Z"
          fill="#3d3f47" fill-rule="evenodd"/>
    <path id="Path_30" data-name="Path 30"
          d="M91.31,46.48,90.1,48.917l-.123-2.369,1.338-.069Zm9.567-6.262a.157.157,0,0,1-.068-.3l2.791-1.15a.157.157,0,0,1,.119.289l-2.79,1.15a.171.171,0,0,1-.052.012Z"
          fill="#dfe2ec" fill-rule="evenodd"/>
    <path id="Path_31" data-name="Path 31"
          d="M92.1,37.005l1.515.867s2.593-4.1,1.638-4.55C93.9,32.677,92.1,37.005,92.1,37.005Z" fill="#b6bac7"
          fill-rule="evenodd"/>
    <path id="Path_32" data-name="Path 32"
          d="M98.41,34.156a.713.713,0,1,0-.676.721.712.712,0,0,0,.676-.721l-.162-2.325.162,2.325Zm-4.6-1.858a.712.712,0,1,0-.674.748.712.712,0,0,0,.674-.748Z"
          fill="#3a3b39" fill-rule="evenodd"/>
    <path id="Path_33" data-name="Path 33"
          d="M99.412,32.965a.235.235,0,0,1-.232-.151,1.054,1.054,0,0,0-1.366-.549.235.235,0,1,1-.2-.424,1.523,1.523,0,0,1,2.007.8.235.235,0,0,1-.207.319ZM94.89,31.327a.235.235,0,0,1-.234-.155,1.391,1.391,0,0,0-1.38-.876.23.23,0,0,1-.256-.212.235.235,0,0,1,.211-.256A1.851,1.851,0,0,1,95.1,31.013a.235.235,0,0,1-.21.314Z"
          fill="#3a3b39" fill-rule="evenodd"/>
    <path id="Path_34" data-name="Path 34" d="M104.451,74.667,86.415,97.72l-.208-4,18.244-19.05Z" fill="#3d3f47"
          fill-rule="evenodd"/>
    <path id="Path_35" data-name="Path 35" d="M-21.8,15.392,82.54,6.325,94.908,215.4l-106.3,1.168L-21.8,15.392Z"
          fill="#dfe2ec" fill-rule="evenodd"/>
    <path id="Path_36" data-name="Path 36"
          d="M62.532,49.718l-66.325,4.3a3.627,3.627,0,0,0-3.434,3.81l.467,9.023a3.627,3.627,0,0,0,3.809,3.434l66.37-3.434a3.627,3.627,0,0,0,3.434-3.809l-.511-9.888a3.627,3.627,0,0,0-3.81-3.434ZM61.275,25.409-5.006,30.57A3.627,3.627,0,0,0-8.44,34.38l.466,9.023a3.627,3.627,0,0,0,3.81,3.435l66.324-4.3a3.627,3.627,0,0,0,3.434-3.809l-.511-9.888a3.627,3.627,0,0,0-3.81-3.434Z"
          fill="#fffffe" fill-rule="evenodd"/>
    <path id="Path_37" data-name="Path 37"
          d="M6.833,61.622l2.941,1.5-.479.94-2.94-1.5.17,3.3-1.053.054-.17-3.3-2.77,1.8-.574-.885,2.77-1.8-2.94-1.5.478-.94,2.941,1.5-.17-3.3,1.052-.055.17,3.3,2.771-1.8.573.885-2.77,1.8Z"
          fill="#6871ef" fill-rule="evenodd"/>
    <path id="Path_38" data-name="Path 38"
          d="M19.217,60.98l2.94,1.5-.478.94-2.941-1.5.17,3.3-1.052.054-.17-3.3-2.77,1.8-.574-.884,2.77-1.8-2.94-1.5.478-.94,2.941,1.5-.17-3.3,1.052-.055.17,3.3,2.771-1.8.573.885-2.77,1.8Z"
          fill="#6871ef" fill-rule="evenodd"/>
    <path id="Path_39" data-name="Path 39"
          d="M31.6,60.34l2.941,1.5-.479.939-2.94-1.5.17,3.3-1.053.055-.17-3.3-2.77,1.8-.574-.885,2.77-1.8-2.94-1.5.478-.94,2.941,1.5-.17-3.3,1.052-.054.17,3.3,2.771-1.8.574.885-2.77,1.8Z"
          fill="#6871ef" fill-rule="evenodd"/>
    <path id="Path_40" data-name="Path 40"
          d="M43.984,59.7l2.94,1.5-.478.94-2.941-1.5.17,3.3-1.052.055-.17-3.3-2.771,1.8-.573-.885,2.77-1.8-2.941-1.5.479-.94,2.94,1.5-.17-3.3,1.053-.054.17,3.3,2.77-1.8.574.885-2.77,1.8Z"
          fill="#6871ef" fill-rule="evenodd"/>
    <path id="Path_41" data-name="Path 41"
          d="M82.9,123.446l-3.116.161a2.713,2.713,0,0,0-2.57,2.85l.93,17.951A2.713,2.713,0,0,0,81,146.977l3.115-.161a2.713,2.713,0,0,0,2.57-2.85l-.929-17.951A2.713,2.713,0,0,0,82.9,123.446Z"
          fill="#6871ef" fill-rule="evenodd"/>
    <path id="Path_42" data-name="Path 42"
          d="M83.542,135.129a4.273,4.273,0,1,0-4.047,4.488A4.273,4.273,0,0,0,83.542,135.129Z" fill="#fffffe"
          fill-rule="evenodd"/>
    <path id="Path_43" data-name="Path 43"
          d="M58.94,64.924l3.225,1.646L61.64,67.6l-3.226-1.646.187,3.618-1.154.06-.188-3.618-3.039,1.97-.629-.97,3.039-1.97L53.4,63.4l.526-1.03,3.226,1.646L56.969,60.4l1.154-.06.187,3.618,3.039-1.97.629.97-3.039,1.97Z"
          fill="#6871ef" fill-rule="evenodd"/>
    <path id="Path_44" data-name="Path 44" d="M97.81,83.385l2.611-3.368,11.878,9.22-2,3.86-12.5-9.712Z" fill="#3d3f47"
          fill-rule="evenodd"/>
    <path id="Path_45" data-name="Path 45"
          d="M97.81,83.385,80.174,103.44s-11.78-8.076-22.2-28.1L58,73.968a6.849,6.849,0,0,0-.585-2.945l-1.654-3.729-.991.275.266,4.067a1.81,1.81,0,0,1-2.057.129l-1.484-.9-.144-2.786L53.8,67.4l-.074-1.449-3.568.525-1.1,5.081,3.118,4.086s14.579,51.378,33.562,40.254C100.862,107.03,110.3,93.1,110.3,93.1l-12.5-9.712Z"
          fill="#fff" fill-rule="evenodd"/>
    <path id="Path_46" data-name="Path 46" d="M80.173,103.407l4.13,3.226-2.868-4.66-1.262,1.434Z" fill="#dfe2ec"
          fill-rule="evenodd"/>
  </g>
</svg>
